<svg width="20" height="20" viewBox="0 0 20 20" fill="none" xmlns="http://www.w3.org/2000/svg">
<g clip-path="url(#clip0_305_2314)">
<path d="M15.625 2.11328C18.0859 3.87109 19.6875 6.74609 19.6875 10C19.6875 15.3438 15.3594 19.6758 10.0195 19.6875C4.68751 19.6992 0.32032 15.3516 0.312507 10.0156C0.308601 6.76172 1.91016 3.87891 4.36719 2.11719C4.82423 1.79297 5.46094 1.92969 5.73438 2.41797L6.35157 3.51563C6.58204 3.92578 6.47266 4.44531 6.09376 4.72656C4.47266 5.92969 3.43751 7.83594 3.43751 9.99609C3.4336 13.6016 6.34766 16.5625 10 16.5625C13.5781 16.5625 16.5859 13.6641 16.5625 9.95703C16.5508 7.93359 15.5977 5.98047 13.9023 4.72266C13.5234 4.44141 13.418 3.92188 13.6484 3.51563L14.2656 2.41797C14.5391 1.93359 15.1719 1.78906 15.625 2.11328ZM11.5625 10.3125V0.9375C11.5625 0.417969 11.1445 0 10.625 0H9.37501C8.85548 0 8.43751 0.417969 8.43751 0.9375V10.3125C8.43751 10.832 8.85548 11.25 9.37501 11.25H10.625C11.1445 11.25 11.5625 10.832 11.5625 10.3125Z" fill="white"/>
</g>
<defs>
<clipPath id="clip0_305_2314">
<rect width="20" height="20" fill="white"/>
</clipPath>
</defs>
</svg>
