<svg width="24" height="24" viewBox="0 0 24 24" fill="none" xmlns="http://www.w3.org/2000/svg">
<path d="M11.6071 2.342C11.7163 2.24717 11.856 2.19495 12.0006 2.19495C12.1452 2.19495 12.2849 2.24717 12.3941 2.342L14.3421 4.034C14.4028 4.08675 14.4734 4.12677 14.5499 4.15168C14.6263 4.17659 14.707 4.18588 14.7871 4.179L17.3591 3.955C17.5031 3.94264 17.6467 3.98266 17.7636 4.06773C17.8804 4.15279 17.9626 4.27717 17.9951 4.418L18.5771 6.932C18.5951 7.01056 18.6287 7.0847 18.6759 7.14999C18.7232 7.21528 18.7831 7.27038 18.8521 7.312L21.0641 8.642C21.1879 8.71653 21.2806 8.83322 21.3253 8.97064C21.3699 9.10805 21.3634 9.25696 21.3071 9.39L20.2991 11.766C20.2678 11.84 20.2516 11.9196 20.2516 12C20.2516 12.0804 20.2678 12.16 20.2991 12.234L21.3071 14.61C21.3637 14.7432 21.3703 14.8923 21.3257 15.0299C21.281 15.1676 21.1881 15.2844 21.0641 15.359L18.8521 16.689C18.7832 16.7305 18.7233 16.7855 18.6761 16.8506C18.6289 16.9157 18.5952 16.9896 18.5771 17.068L17.9951 19.582C17.9626 19.7228 17.8804 19.8472 17.7636 19.9323C17.6467 20.0173 17.5031 20.0574 17.3591 20.045L14.7871 19.821C14.7071 19.814 14.6264 19.8231 14.55 19.8479C14.4736 19.8726 14.4029 19.9124 14.3421 19.965L12.3931 21.658C12.2839 21.7528 12.1442 21.8051 11.9996 21.8051C11.855 21.8051 11.7153 21.7528 11.6061 21.658L9.65811 19.965C9.59735 19.9124 9.52666 19.8726 9.45022 19.8479C9.37377 19.8231 9.29314 19.814 9.21311 19.821L6.64111 20.045C6.49711 20.0574 6.35348 20.0173 6.23664 19.9323C6.11979 19.8472 6.03758 19.7228 6.00511 19.582L5.42311 17.068C5.40514 16.9894 5.37153 16.9153 5.32428 16.85C5.27703 16.7847 5.21711 16.7296 5.14811 16.688L2.93611 15.358C2.81233 15.2835 2.7196 15.1668 2.67496 15.0294C2.63032 14.892 2.63676 14.743 2.69311 14.61L3.70111 12.234C3.73246 12.16 3.74862 12.0804 3.74862 12C3.74862 11.9196 3.73246 11.84 3.70111 11.766L2.69311 9.39C2.63648 9.25684 2.62989 9.1077 2.67455 8.97006C2.7192 8.83242 2.81209 8.71556 2.93611 8.641L5.14811 7.311C5.21701 7.26949 5.27686 7.21455 5.3241 7.14944C5.37135 7.08433 5.40501 7.01038 5.42311 6.932L6.00511 4.418C6.03758 4.27717 6.11979 4.15279 6.23664 4.06773C6.35348 3.98266 6.49711 3.94264 6.64111 3.955L9.21311 4.179C9.29321 4.18588 9.37388 4.17659 9.45033 4.15168C9.52677 4.12677 9.59743 4.08675 9.65811 4.034L11.6071 2.342Z" stroke="white" stroke-width="1.25"/>
<path d="M9 13L11 15L16 10" stroke="white" stroke-width="1.25" stroke-linecap="round" stroke-linejoin="round"/>
</svg>
