<svg width="24" height="24" viewBox="0 0 24 24" fill="none" xmlns="http://www.w3.org/2000/svg">
<path d="M12 22C11.45 22 10.9793 21.8043 10.588 21.413C10.1967 21.0217 10.0007 20.5507 10 20H14C14 20.55 13.8043 21.021 13.413 21.413C13.0217 21.805 12.5507 22.0007 12 22ZM4 19V17H6V10C6 8.61667 6.41667 7.38767 7.25 6.313C8.08333 5.23833 9.16667 4.534 10.5 4.2V2H13.5V3.825C13.3167 4.19167 13.1833 4.56667 13.1 4.95C13.0167 5.33333 12.9833 5.725 13 6.125C12.8333 6.09167 12.6707 6.06233 12.512 6.037C12.3533 6.01167 12.1827 5.99933 12 6C10.9 6 9.95833 6.39167 9.175 7.175C8.39167 7.95833 8 8.9 8 10V17H16V10.575C16.3 10.7083 16.621 10.8127 16.963 10.888C17.305 10.9633 17.6507 11.0007 18 11V17H20V19H4ZM18 9C17.1667 9 16.4583 8.70833 15.875 8.125C15.2917 7.54167 15 6.83333 15 6C15 5.16667 15.2917 4.45833 15.875 3.875C16.4583 3.29167 17.1667 3 18 3C18.8333 3 19.5417 3.29167 20.125 3.875C20.7083 4.45833 21 5.16667 21 6C21 6.83333 20.7083 7.54167 20.125 8.125C19.5417 8.70833 18.8333 9 18 9Z" fill="#005F6B"/>
</svg>
