<svg width="20" height="20" viewBox="0 0 20 20" fill="none" xmlns="http://www.w3.org/2000/svg">
<path d="M7.70833 18.3333L7.375 15.6667C7.19444 15.5972 7.02444 15.5139 6.865 15.4167C6.70556 15.3194 6.54917 15.2153 6.39583 15.1042L3.91667 16.1458L1.625 12.1875L3.77083 10.5625C3.75694 10.4653 3.75 10.3717 3.75 10.2817V9.71916C3.75 9.6286 3.75694 9.53471 3.77083 9.43749L1.625 7.81249L3.91667 3.85416L6.39583 4.89582C6.54861 4.78471 6.70833 4.68055 6.875 4.58332C7.04167 4.4861 7.20833 4.40277 7.375 4.33332L7.70833 1.66666H12.2917L12.625 4.33332C12.8056 4.40277 12.9758 4.4861 13.1358 4.58332C13.2958 4.68055 13.4519 4.78471 13.6042 4.89582L16.0833 3.85416L18.375 7.81249L16.2292 9.43749C16.2431 9.53471 16.25 9.6286 16.25 9.71916V10.2808C16.25 10.3714 16.2361 10.4653 16.2083 10.5625L18.3542 12.1875L16.0625 16.1458L13.6042 15.1042C13.4514 15.2153 13.2917 15.3194 13.125 15.4167C12.9583 15.5139 12.7917 15.5972 12.625 15.6667L12.2917 18.3333H7.70833ZM9.16667 16.6667H10.8125L11.1042 14.4583C11.5347 14.3472 11.9342 14.1842 12.3025 13.9692C12.6708 13.7542 13.0075 13.4936 13.3125 13.1875L15.375 14.0417L16.1875 12.625L14.3958 11.2708C14.4653 11.0764 14.5139 10.8717 14.5417 10.6567C14.5694 10.4417 14.5833 10.2228 14.5833 9.99999C14.5833 9.77777 14.5694 9.55916 14.5417 9.34416C14.5139 9.12916 14.4653 8.92416 14.3958 8.72916L16.1875 7.37499L15.375 5.95832L13.3125 6.83332C13.0069 6.51388 12.6703 6.24666 12.3025 6.03166C11.9347 5.81666 11.5353 5.65332 11.1042 5.54166L10.8333 3.33332H9.1875L8.89583 5.54166C8.46528 5.65277 8.06611 5.8161 7.69833 6.03166C7.33056 6.24721 6.99361 6.50749 6.6875 6.81249L4.625 5.95832L3.8125 7.37499L5.60417 8.70832C5.53472 8.91666 5.48611 9.12499 5.45833 9.33332C5.43056 9.54166 5.41667 9.76388 5.41667 9.99999C5.41667 10.2222 5.43056 10.4375 5.45833 10.6458C5.48611 10.8542 5.53472 11.0625 5.60417 11.2708L3.8125 12.625L4.625 14.0417L6.6875 13.1667C6.99306 13.4861 7.33 13.7536 7.69833 13.9692C8.06667 14.1847 8.46583 14.3478 8.89583 14.4583L9.16667 16.6667ZM10.0417 12.9167C10.8472 12.9167 11.5347 12.6319 12.1042 12.0625C12.6736 11.493 12.9583 10.8055 12.9583 9.99999C12.9583 9.19443 12.6736 8.50693 12.1042 7.93749C11.5347 7.36804 10.8472 7.08332 10.0417 7.08332C9.22222 7.08332 8.53111 7.36804 7.96833 7.93749C7.40556 8.50693 7.12444 9.19443 7.125 9.99999C7.125 10.8055 7.40639 11.493 7.96917 12.0625C8.53194 12.6319 9.22278 12.9167 10.0417 12.9167Z" fill="white"/>
</svg>
