<svg width="24" height="24" viewBox="0 0 24 24" fill="none" xmlns="http://www.w3.org/2000/svg">
<mask id="path-1-inside-1_305_2270" fill="white">
<path d="M6.07143 18.0499H10.0271V12.4596H14.9729V18.0499H18.9286V9.49911L12.5 5.18761L6.07143 9.49911V18.0499ZM5 19V9.02407L12.5 4L20 9.02407V19H13.9014V13.4097H11.0986V19H5Z"/>
</mask>
<path d="M6.07143 18.0499H10.0271V12.4596H14.9729V18.0499H18.9286V9.49911L12.5 5.18761L6.07143 9.49911V18.0499ZM5 19V9.02407L12.5 4L20 9.02407V19H13.9014V13.4097H11.0986V19H5Z" fill="white"/>
<path d="M6.07143 18.0499H4.07143V20.0499H6.07143V18.0499ZM10.0271 18.0499V20.0499H12.0271V18.0499H10.0271ZM10.0271 12.4596V10.4596H8.02714V12.4596H10.0271ZM14.9729 12.4596H16.9729V10.4596H14.9729V12.4596ZM14.9729 18.0499H12.9729V20.0499H14.9729V18.0499ZM18.9286 18.0499V20.0499H20.9286V18.0499H18.9286ZM18.9286 9.49911H20.9286V8.43231L20.0426 7.83809L18.9286 9.49911ZM12.5 5.18761L13.614 3.52659L12.5 2.77945L11.386 3.52659L12.5 5.18761ZM6.07143 9.49911L4.95742 7.83809L4.07143 8.43231V9.49911H6.07143ZM5 19H3V21H5V19ZM5 9.02407L3.88691 7.36243L3 7.95655V9.02407H5ZM12.5 4L13.6131 2.33836L12.5 1.59273L11.3869 2.33836L12.5 4ZM20 9.02407H22V7.95655L21.1131 7.36243L20 9.02407ZM20 19V21H22V19H20ZM13.9014 19H11.9014V21H13.9014V19ZM13.9014 13.4097H15.9014V11.4097H13.9014V13.4097ZM11.0986 13.4097V11.4097H9.09857V13.4097H11.0986ZM11.0986 19V21H13.0986V19H11.0986ZM6.07143 20.0499H10.0271V16.0499H6.07143V20.0499ZM12.0271 18.0499V12.4596H8.02714V18.0499H12.0271ZM10.0271 14.4596H14.9729V10.4596H10.0271V14.4596ZM12.9729 12.4596V18.0499H16.9729V12.4596H12.9729ZM14.9729 20.0499H18.9286V16.0499H14.9729V20.0499ZM20.9286 18.0499V9.49911H16.9286V18.0499H20.9286ZM20.0426 7.83809L13.614 3.52659L11.386 6.84863L17.8146 11.1601L20.0426 7.83809ZM11.386 3.52659L4.95742 7.83809L7.18544 11.1601L13.614 6.84863L11.386 3.52659ZM4.07143 9.49911V18.0499H8.07143V9.49911H4.07143ZM7 19V9.02407H3V19H7ZM6.11309 10.6857L13.6131 5.66164L11.3869 2.33836L3.88691 7.36243L6.11309 10.6857ZM11.3869 5.66164L18.8869 10.6857L21.1131 7.36243L13.6131 2.33836L11.3869 5.66164ZM18 9.02407V19H22V9.02407H18ZM20 17H13.9014V21H20V17ZM15.9014 19V13.4097H11.9014V19H15.9014ZM13.9014 11.4097H11.0986V15.4097H13.9014V11.4097ZM9.09857 13.4097V19H13.0986V13.4097H9.09857ZM11.0986 17H5V21H11.0986V17Z" fill="white" mask="url(#path-1-inside-1_305_2270)"/>
</svg>
