<svg width="20" height="20" viewBox="0 0 20 20" fill="none" xmlns="http://www.w3.org/2000/svg">
<path d="M10.0001 9.16663C11.1052 9.16663 12.165 9.60561 12.9464 10.387C13.7278 11.1684 14.1667 12.2282 14.1667 13.3333V18.3333H12.5001V13.3333C12.5001 12.6956 12.2565 12.082 11.819 11.6181C11.3815 11.1541 10.7833 10.8749 10.1467 10.8375L10.0001 10.8333C9.36241 10.8333 8.74882 11.0769 8.28486 11.5144C7.82091 11.9518 7.54166 12.55 7.50425 13.1866L7.50008 13.3333V18.3333H5.83341V13.3333C5.83341 12.2282 6.2724 11.1684 7.0538 10.387C7.8352 9.60561 8.89501 9.16663 10.0001 9.16663ZM4.58341 11.6666C4.81591 11.6666 5.04175 11.6941 5.25841 11.745C5.11594 12.1691 5.03157 12.6106 5.00758 13.0575L5.00008 13.3333V13.405C4.90429 13.3707 4.80466 13.3483 4.70341 13.3383L4.58341 13.3333C4.27281 13.3333 3.97333 13.4489 3.74332 13.6577C3.51332 13.8664 3.36927 14.1533 3.33925 14.4625L3.33341 14.5833V18.3333H1.66675V14.5833C1.66675 13.8097 1.97404 13.0679 2.52102 12.5209C3.068 11.9739 3.80987 11.6666 4.58341 11.6666ZM15.4167 11.6666C16.1903 11.6666 16.9322 11.9739 17.4791 12.5209C18.0261 13.0679 18.3334 13.8097 18.3334 14.5833V18.3333H16.6667V14.5833C16.6668 14.2727 16.5511 13.9732 16.3424 13.7432C16.1336 13.5132 15.8467 13.3692 15.5376 13.3391L15.4167 13.3333C15.2709 13.3333 15.1309 13.3583 15.0001 13.4041V13.3333C15.0001 12.7783 14.9101 12.245 14.7434 11.7466C14.9584 11.6941 15.1851 11.6666 15.4167 11.6666ZM4.58341 6.66663C5.13595 6.66663 5.66585 6.88612 6.05655 7.27682C6.44725 7.66752 6.66675 8.19742 6.66675 8.74996C6.66675 9.30249 6.44725 9.8324 6.05655 10.2231C5.66585 10.6138 5.13595 10.8333 4.58341 10.8333C4.03088 10.8333 3.50098 10.6138 3.11028 10.2231C2.71957 9.8324 2.50008 9.30249 2.50008 8.74996C2.50008 8.19742 2.71957 7.66752 3.11028 7.27682C3.50098 6.88612 4.03088 6.66663 4.58341 6.66663ZM15.4167 6.66663C15.9693 6.66663 16.4992 6.88612 16.8899 7.27682C17.2806 7.66752 17.5001 8.19742 17.5001 8.74996C17.5001 9.30249 17.2806 9.8324 16.8899 10.2231C16.4992 10.6138 15.9693 10.8333 15.4167 10.8333C14.8642 10.8333 14.3343 10.6138 13.9436 10.2231C13.5529 9.8324 13.3334 9.30249 13.3334 8.74996C13.3334 8.19742 13.5529 7.66752 13.9436 7.27682C14.3343 6.88612 14.8642 6.66663 15.4167 6.66663ZM4.58341 8.33329C4.47291 8.33329 4.36693 8.37719 4.28879 8.45533C4.21065 8.53347 4.16675 8.63945 4.16675 8.74996C4.16675 8.86047 4.21065 8.96645 4.28879 9.04459C4.36693 9.12273 4.47291 9.16663 4.58341 9.16663C4.69392 9.16663 4.7999 9.12273 4.87804 9.04459C4.95618 8.96645 5.00008 8.86047 5.00008 8.74996C5.00008 8.63945 4.95618 8.53347 4.87804 8.45533C4.7999 8.37719 4.69392 8.33329 4.58341 8.33329ZM15.4167 8.33329C15.3062 8.33329 15.2003 8.37719 15.1221 8.45533C15.044 8.53347 15.0001 8.63945 15.0001 8.74996C15.0001 8.86047 15.044 8.96645 15.1221 9.04459C15.2003 9.12273 15.3062 9.16663 15.4167 9.16663C15.5273 9.16663 15.6332 9.12273 15.7114 9.04459C15.7895 8.96645 15.8334 8.86047 15.8334 8.74996C15.8334 8.63945 15.7895 8.53347 15.7114 8.45533C15.6332 8.37719 15.5273 8.33329 15.4167 8.33329ZM10.0001 1.66663C10.8841 1.66663 11.732 2.01782 12.3571 2.64294C12.9822 3.26806 13.3334 4.1159 13.3334 4.99996C13.3334 5.88401 12.9822 6.73186 12.3571 7.35698C11.732 7.9821 10.8841 8.33329 10.0001 8.33329C9.11603 8.33329 8.26818 7.9821 7.64306 7.35698C7.01794 6.73186 6.66675 5.88401 6.66675 4.99996C6.66675 4.1159 7.01794 3.26806 7.64306 2.64294C8.26818 2.01782 9.11603 1.66663 10.0001 1.66663ZM10.0001 3.33329C9.55805 3.33329 9.13413 3.50889 8.82157 3.82145C8.50901 4.13401 8.33341 4.55793 8.33341 4.99996C8.33341 5.44199 8.50901 5.86591 8.82157 6.17847C9.13413 6.49103 9.55805 6.66663 10.0001 6.66663C10.4421 6.66663 10.866 6.49103 11.1786 6.17847C11.4912 5.86591 11.6667 5.44199 11.6667 4.99996C11.6667 4.55793 11.4912 4.13401 11.1786 3.82145C10.866 3.50889 10.4421 3.33329 10.0001 3.33329Z" fill="white"/>
</svg>
