<svg width="20" height="20" viewBox="0 0 20 20" fill="none" xmlns="http://www.w3.org/2000/svg">
<path d="M16.3363 6.4462L10.4801 12.21C10.3523 12.3364 10.1798 12.4073 10.0001 12.4073C9.82032 12.4073 9.64783 12.3364 9.52006 12.21L3.66381 6.44746C3.53524 6.32111 3.36219 6.25032 3.18193 6.25032C3.00167 6.25032 2.82863 6.32111 2.70006 6.44746C2.63675 6.50918 2.58643 6.58295 2.55208 6.66442C2.51772 6.74589 2.50002 6.83341 2.50002 6.92183C2.50002 7.01025 2.51772 7.09777 2.55208 7.17924C2.58643 7.26071 2.63675 7.33448 2.70006 7.3962L8.55506 13.1587C8.94071 13.5374 9.45959 13.7495 10.0001 13.7495C10.5405 13.7495 11.0594 13.5374 11.4451 13.1587L17.3001 7.3962C17.3636 7.33446 17.414 7.26062 17.4485 7.17903C17.483 7.09744 17.5007 7.00977 17.5007 6.9212C17.5007 6.83264 17.483 6.74497 17.4485 6.66338C17.414 6.58179 17.3636 6.50795 17.3001 6.4462C17.1715 6.31986 16.9984 6.24906 16.8182 6.24906C16.6379 6.24906 16.4649 6.31986 16.3363 6.4462Z" fill="#F8F8F8"/>
</svg>
